<?xml version="1.0" encoding="UTF-8"?>
<svg width="24px" height="24px" viewBox="0 0 24 24" version="1.1" xmlns="http://www.w3.org/2000/svg" xmlns:xlink="http://www.w3.org/1999/xlink">
    <title>内容运营icon</title>
    <g id="页面-1" stroke="none" stroke-width="1" fill="none" fill-rule="evenodd">
        <g id="查看法律问题" transform="translate(-30.000000, -859.000000)">
            <g id="内容运营icon" transform="translate(30.000000, 859.000000)">
                <rect id="矩形" x="0" y="0" width="24" height="24"></rect>
                <path d="M8.2,7.2 L11.4,7.2 L11.4,10.4 L8.2,10.4 L8.2,7.2 Z M13,8.00000001 L16.2,8.00000001 L16.2,9.6 L13,9.6 L13,8.00000001 Z M8.2,12 L16.2,12 L16.2,13.6 L8.2,13.6 L8.2,12 Z M8.2,15.2 L16.2,15.2 L16.2,16.8 L8.2,16.8 L8.2,15.2 Z" id="形状" fill="#9BA0A4" fill-rule="nonzero"></path>
                <path d="M18.6,4 L5.80000001,4 C5.32000001,4 5,4.32000001 5,4.80000001 L5,19.2 C5,19.68 5.32000001,20 5.80000001,20 L18.6,20 C19.08,20 19.4,19.68 19.4,19.2 L19.4,4.80000001 C19.4,4.32000001 19.08,4 18.6,4 Z M17.8,18.4 L6.59999999,18.4 L6.59999999,5.60000001 L17.8,5.60000001 L17.8,18.4 L17.8,18.4 Z" id="形状" fill="#9BA0A4" fill-rule="nonzero"></path>
            </g>
        </g>
    </g>
</svg>