<?xml version="1.0" encoding="UTF-8"?>
<svg width="18px" height="18px" viewBox="0 0 18 18" version="1.1" xmlns="http://www.w3.org/2000/svg" xmlns:xlink="http://www.w3.org/1999/xlink">
    <title>查看密码icon</title>
    <g id="页面-1" stroke="none" stroke-width="1" fill="none" fill-rule="evenodd">
        <g id="登录多状态" transform="translate(-838.000000, -492.000000)">
            <g id="密码" transform="translate(520.000000, 455.000000)">
                <g id="查看密码icon" transform="translate(318.000000, 37.000000)">
                    <path d="M17.9385426,9.01124721 C17.8406397,8.81544052 17.6644147,8.4825708 17.390285,8.05179682 C16.9399316,7.34689493 16.391674,6.66157427 15.7455139,6.01541972 C13.8853623,4.13568137 11.6335863,3 8.99020425,3 C6.3468222,3 4.09504618,4.13567587 2.25448128,5.995833 C1.60832122,6.64199305 1.06006359,7.32731372 0.609710224,8.03221009 C0.335582327,8.44340285 0.139775637,8.77627257 0.0614525936,8.97207926 C-0.0168698988,9.12872407 -0.0168698988,9.2853696 0.0418719246,9.44201385 C0.120194417,9.63782054 0.276839218,9.99027148 0.511806512,10.4014642 C0.903418057,11.1063661 1.41251508,11.811268 2.0195127,12.4574281 C3.78176741,14.3371664 6.09228525,15.4728478 9.00978969,15.4728478 C11.6727585,15.4728478 13.9245161,14.3371719 15.7650994,12.4770148 C16.4112594,11.8308547 16.9595171,11.1455341 17.4098704,10.4406377 C17.6839983,10.0294449 17.8602238,9.69657522 17.9581281,9.50076853 C18.0168699,9.36370421 18.0168699,9.1678988 17.9385474,9.01125272 L17.9385426,9.01124721 Z M16.391674,9.81405152 C15.9804812,10.4406304 15.4909654,11.067211 14.9035472,11.6546348 C13.2587761,13.318987 11.3007092,14.2980168 8.99020976,14.2980168 C6.42515625,14.2980168 4.40834753,13.318987 2.86147339,11.6546348 C2.31321576,11.0672165 1.86286239,10.4406377 1.51041145,9.83363825 C1.39292781,9.61825217 1.29502538,9.42244548 1.21670234,9.26580123 C1.29502483,9.10915643 1.43208841,8.91335029 1.56915328,8.678383 C1.98034604,8.05180416 2.48944123,7.42522349 3.05728008,6.83779974 C4.70205114,5.17344747 6.66011804,4.19441769 8.97061752,4.19441769 C11.2615486,4.19441769 13.2391839,5.19302869 14.883955,6.85738647 C15.4713732,7.4448047 15.960889,8.09096476 16.3720818,8.71753809 C16.5091461,8.93292417 16.6266303,9.12873086 16.7245327,9.28537511 C16.6462102,9.42243942 16.5483072,9.59866545 16.391663,9.81405152 L16.391674,9.81405152 Z M8.99020425,5.91750445 C7.09087917,5.91750445 5.66150704,7.36646881 5.66150704,9.24620166 C5.66150704,11.12594 7.09089202,12.5748989 8.99020425,12.5748989 C10.8895293,12.5748989 12.3189015,11.1259345 12.3189015,9.24620166 C12.3189015,7.3664633 10.8895165,5.91750445 8.99020425,5.91750445 Z M8.99020425,11.380494 C7.73704474,11.380494 6.83634351,10.4602061 6.83634351,9.24620166 C6.83634351,8.01262336 7.73705208,7.11190928 8.99020425,7.11190928 C10.2433638,7.11190928 11.144065,8.03219724 11.144065,9.24620166 C11.144065,10.4797799 10.2433564,11.380494 8.99020425,11.380494 Z" id="形状" fill-rule="nonzero"></path>
                    <rect id="矩形" x="0" y="0" width="18" height="18"></rect>
                </g>
            </g>
        </g>
    </g>
</svg>
