<?xml version="1.0" encoding="UTF-8"?>
<svg width="32px" height="32px" viewBox="0 0 32 32" version="1.1" xmlns="http://www.w3.org/2000/svg" xmlns:xlink="http://www.w3.org/1999/xlink">
    <title>消息icon</title>
    <defs>
        <filter id="filter-1">
            <feColorMatrix in="SourceGraphic" type="matrix" values="0 0 0 0 0.000000 0 0 0 0 0.466667 0 0 0 0 1.000000 0 0 0 1.000000 0"></feColorMatrix>
        </filter>
    </defs>
    <g id="页面-1" stroke="none" stroke-width="1" fill="none" fill-rule="evenodd">
        <g id="查看法律问题" transform="translate(-1322.000000, -96.000000)">
            <g id="固定头部" transform="translate(0.000000, 80.000000)">
                <g id="消息icon" transform="translate(1322.000000, 16.000000)">
                    <circle id="椭圆形" stroke="#8399BF" fill="#FFFFFF" cx="16" cy="16" r="15.5"></circle>
                    <circle id="椭圆形" fill="#FF4049" cx="25" cy="4" r="3"></circle>
                    <g filter="url(#filter-1)" id="编组">
                        <g transform="translate(9.000000, 8.000000)">
                            <path d="M14.0261678,13.2916667 L12.9845012,11.0833333 L12.9845012,7.45 C12.9845012,4.85833333 11.2761678,2.56666667 8.85116784,1.8 L8.85116784,1.76666667 C8.85116784,0.791666667 8.05950117,0 7.08450117,0 C6.10950117,0 5.3178345,0.791666667 5.3178345,1.76666667 L5.3178345,1.78333333 C2.85950117,2.54166667 1.12616784,4.83333333 1.12616784,7.45 L1.12616784,11.075 L0.0595011708,13.2833333 C-0.0321654959,13.4666667 -0.0154988292,13.6916667 0.0928345041,13.8666667 C0.201785892,14.0427619 0.394093119,14.1499496 0.601167837,14.15 L3.7678345,14.15 C4.45116784,15.2833333 5.70116784,16 7.0428345,16 C8.38450117,16 9.63450117,15.2833333 10.3178345,14.15 L13.4845012,14.15 C13.6928345,14.15 13.8845012,14.0416667 13.9928345,13.8666667 C14.1011678,13.7 14.1178345,13.4833333 14.0261678,13.2916667 Z M7.0428345,14.8 C6.40116784,14.8 5.7928345,14.5666667 5.32616784,14.1583333 L8.75950117,14.1583333 C8.2928345,14.5583333 7.68450117,14.8 7.0428345,14.8 Z M1.5678345,12.95 L2.27616784,11.4833333 C2.3178345,11.4 2.33450117,11.3083333 2.33450117,11.225 L2.33450117,7.45833333 C2.33450117,5.20833333 3.93450117,3.26666667 6.12616784,2.825 C6.30116784,2.79166667 6.45950117,2.675 6.5428345,2.51666667 C6.62616784,2.35833333 6.63450117,2.16666667 6.55950117,2 C6.52616784,1.93333333 6.50950117,1.85 6.50950117,1.775 C6.50950117,1.46666667 6.75950117,1.20833333 7.07616784,1.20833333 C7.38450117,1.20833333 7.6428345,1.45833333 7.6428345,1.775 C7.6428345,1.85833333 7.62616784,1.93333333 7.5928345,2 C7.5178345,2.16666667 7.52616784,2.35833333 7.60950117,2.51666667 C7.6928345,2.675 7.8428345,2.79166667 8.02616784,2.83333333 C10.2011678,3.28333333 11.7845012,5.23333333 11.7845012,7.45833333 L11.7845012,11.225 C11.7845012,11.3166667 11.8011678,11.4 11.8428345,11.4833333 L12.5345012,12.9583333 L1.5678345,12.9583333 L1.5678345,12.95 Z" id="形状" fill="#000000" fill-rule="nonzero"></path>
                        </g>
                    </g>
                </g>
            </g>
        </g>
    </g>
</svg>
