<?xml version="1.0" encoding="UTF-8"?>
<svg width="24px" height="24px" viewBox="0 0 24 24" version="1.1" xmlns="http://www.w3.org/2000/svg" xmlns:xlink="http://www.w3.org/1999/xlink">
    <title>问题库icon</title>
    <g id="页面-1" stroke="none" stroke-width="1" fill="none" fill-rule="evenodd">
        <g id="查看法律问题" transform="translate(-30.000000, -236.000000)">
            <g id="侧边栏" transform="translate(-0.000000, 80.000000)">
                <g id="2.问题库" transform="translate(-0.000000, 144.000000)">
                    <g id="2.问题库标题" transform="translate(-0.000000, 0.000000)">
                        <g id="问题库icon" transform="translate(30.000000, 12.000000)">
                            <rect id="矩形" x="0" y="0" width="24" height="24"></rect>
                            <path d="M6.52000047,8.72786288 L12.0000003,11.7726628 L17.4800001,8.72786288 L12.0000003,5.71426298 L6.52000047,8.72786288 Z M5.60000048,10.0478628 L5.60000048,16.9414626 L12.0000003,20.4614625 L18.4000001,16.9414626 L18.4000001,10.0478628 L12.0000003,13.6030627 L5.60000048,10.0478628 Z M19.5856,8.05986291 C19.8411593,8.20045138 20.0000003,8.46898557 20.0000003,8.76066289 L20.0000003,17.4158626 C20.0000003,17.7075399 19.8411593,17.9760741 19.5856,18.1166626 L12.3856003,22.0766624 C12.1455002,22.2087465 11.8545003,22.2087465 11.6144003,22.0766624 L4.41440052,18.1166626 C4.15859001,17.975936 3.99975863,17.7070265 4.00000028,17.4150626 L4.00000028,8.75986287 C4.00000028,8.46818555 4.15884125,8.19965137 4.41440052,8.0590629 L11.6144003,4.09906303 C11.8545003,3.96697899 12.1455002,3.96697899 12.3856003,4.09906303 L19.5856,8.0590629 L19.5856,8.05986291 Z" id="形状" fill="" fill-rule="nonzero"></path>
                            <polygon id="路径" fill="" fill-rule="nonzero" points="11.2000003 11.6878627 12.8000002 11.6878627 12.8000002 20.4878625 11.2000003 20.4878625"></polygon>
                        </g>
                    </g>
                </g>
            </g>
        </g>
    </g>
</svg>
